<?xml version="1.0" encoding="utf-8"?>
<!-- Generated by IcoMoon.io -->
<!DOCTYPE svg PUBLIC "-//W3C//DTD SVG 1.1//EN" "http://www.w3.org/Graphics/SVG/1.1/DTD/svg11.dtd">
<svg version="1.1" xmlns="http://www.w3.org/2000/svg" xmlns:xlink="http://www.w3.org/1999/xlink" width="512" height="512" viewBox="0 0 512 512">
<g>
</g>
	<path d="M366.643 277.401c0 29.563-11.51 57.365-32.379 78.244-20.941 20.921-48.712 32.44-78.285 32.44-61.020 0-110.663-49.644-110.663-110.684v-124.099h-99.052v124.099c0 115.682 94.085 209.715 209.715 209.715 56.033 0 108.718-21.781 148.326-61.379 39.608-39.639 61.43-92.324 61.43-148.337v-124.099h-99.103v124.099z" fill="#000000" />
	<path d="M384.645 108.4v-9.922h-9.882z" fill="#000000" />
	<path d="M454.523 138.578h9.913v-113.695h-97.577v113.695h87.664zM386.683 46.643h57.938v72.837h-57.938v-72.837z" fill="#000000" />
	<path d="M251.453 126.618l99.871-84.582-84.316 44.667-24.852-47.698-83.978 67.154 75.111-25.794z" fill="#000000" />
	<path d="M136.233 138.578h9.892v-113.695h-97.546v113.695h87.654zM68.373 46.643h57.948v72.837h-57.948v-72.837z" fill="#000000" />
</svg>
